<svg xmlns="http://www.w3.org/2000/svg" viewBox="0 0 400 120">
  <defs>
    <linearGradient id="grad1" x1="0%" y1="0%" x2="100%" y2="100%">
      <stop offset="0%" style="stop-color:#FF6B6B;stop-opacity:1" />
      <stop offset="100%" style="stop-color:#FF8E53;stop-opacity:1" />
    </linearGradient>
    <linearGradient id="grad2" x1="0%" y1="0%" x2="100%" y2="0%">
      <stop offset="0%" style="stop-color:#4ECDC4;stop-opacity:1" />
      <stop offset="100%" style="stop-color:#44A08D;stop-opacity:1" />
    </linearGradient>
  </defs>

  <!-- Background rounded rect -->
  <rect x="5" y="10" width="390" height="100" rx="12" fill="#1a1a2e" />

  <!-- Retro grid lines -->
  <g stroke="#ffffff10" stroke-width="1">
    <line x1="5" y1="35" x2="395" y2="35"/>
    <line x1="5" y1="60" x2="395" y2="60"/>
    <line x1="5" y1="85" x2="395" y2="85"/>
  </g>

  <!-- Git branch icon (pixelated style) -->
  <g fill="url(#grad2)">
    <!-- Main branch line -->
    <rect x="30" y="30" width="6" height="60" rx="1"/>
    <!-- Branch point -->
    <rect x="36" y="45" width="20" height="6" rx="1"/>
    <rect x="50" y="35" width="6" height="22" rx="1"/>
    <!-- Merge point -->
    <rect x="36" y="70" width="20" height="6" rx="1"/>
    <rect x="50" y="70" width="6" height="15" rx="1"/>
    <!-- Commit dots -->
    <circle cx="33" cy="35" r="5"/>
    <circle cx="53" cy="38" r="4"/>
    <circle cx="33" cy="60" r="5"/>
    <circle cx="53" cy="73" r="4"/>
    <circle cx="33" cy="85" r="5"/>
  </g>

  <!-- "RET" text - retro style -->
  <text x="80" y="75" font-family="monospace" font-size="48" font-weight="bold" fill="url(#grad1)">RED</text>

  <!-- "GIT" text -->
  <text x="195" y="75" font-family="monospace" font-size="48" font-weight="bold" fill="url(#grad2)">GIT</text>

  <!-- Pixel decorations -->
  <g fill="#FF6B6B" opacity="0.8">
    <rect x="310" y="25" width="8" height="8"/>
    <rect x="325" y="25" width="8" height="8"/>
    <rect x="340" y="25" width="8" height="8"/>
    <rect x="317" y="33" width="8" height="8"/>
    <rect x="332" y="33" width="8" height="8"/>
    <rect x="324" y="41" width="8" height="8"/>
  </g>

  <!-- AI sparkle -->
  <g fill="#FFD93D">
    <polygon points="365,35 368,45 378,45 370,52 373,62 365,55 357,62 360,52 352,45 362,45"/>
  </g>

  <!-- Tagline -->
  <text x="80" y="100" font-family="monospace" font-size="11" fill="#888">AI-powered Git workflow</text>

  <!-- Version badge -->
  <rect x="320" y="80" width="60" height="20" rx="4" fill="#4ECDC4"/>
  <text x="350" y="94" font-family="monospace" font-size="10" fill="#1a1a2e" text-anchor="middle">v0.3.17</text>
</svg>